<?xml version="1.0" encoding="UTF-8" standalone="no"?>
<svg width="300px" height="101px" xmlns="http://www.w3.org/2000/svg" xmlns:xlink="http://www.w3.org/1999/xlink" xmlns:serif="http://www.serif.com/"   viewBox="0 0 300 101" version="1.1" xml:space="preserve" style="fill-rule:evenodd;clip-rule:evenodd;stroke-linejoin:round;stroke-miterlimit:2;">
    <g transform="matrix(1,0,0,1,-288,-225)">
        <g transform="matrix(0.340753,0,0,0.340753,298.799,182.034)">
            <g transform="matrix(3.12674,0,0,3.33967,-743.993,-621.195)">
                <rect x="226.152" y="226.136" width="281.573" height="87.873" style="fill:none;"></rect>
            </g>
            <g opacity="0.4">
                <g transform="matrix(1,0,0,1,709.925,332.291)">
                    <path d="M0,-120.454C-112.422,-61.183 -91.776,0 -91.776,0C-57.364,-84.507 0,-120.454 0,-120.454" style="fill:rgb(87,183,179);fill-rule:nonzero;"></path>
                </g>
            </g>
            <g opacity="0.4">
                <g transform="matrix(-0.798726,-0.601695,-0.601695,0.798726,598.132,292.628)">
                    <path d="M-48.623,-135.869C-48.623,-135.869 -19.129,-89.229 -45.044,15.726C-45.044,15.726 -46.531,15.451 -48.623,13.875C-55.015,9.059 -67.075,-7.897 -59.862,-66.295C-59.862,-66.295 -45.154,-115.059 -48.623,-135.869" style="fill:rgb(87,183,179);fill-rule:nonzero;"></path>
                </g>
            </g>
            <g opacity="0.4">
                <g transform="matrix(-0.594066,0.804416,0.804416,0.594066,596.465,313.999)">
                    <path d="M26.788,-48.501C30.77,-53.894 35.296,-59.651 40.442,-65.81C40.442,-65.81 46.242,-15.957 26.788,10.386C21.584,17.432 14.581,22.793 5.172,25.075C5.172,25.075 -16.756,10.461 26.788,-48.501" style="fill:rgb(87,183,179);fill-rule:nonzero;"></path>
                </g>
            </g>
            <g transform="matrix(1,0,0,1,0,-63.823)">
                <path d="M292.84,299.491L305.615,299.491L305.615,396.62L292.84,396.62L292.84,299.491ZM305.615,282.018L292.84,282.018L292.84,262.479L305.615,262.479L305.615,282.018Z" style="fill:rgb(87,183,179);fill-rule:nonzero;"></path>
            </g>
            <g transform="matrix(1,0,0,1,368.288,269.485)">
                <path d="M0,29.497C0,38.326 -6.916,51.478 -23.749,51.478C-31.563,51.478 -38.777,47.72 -38.777,37.2C-38.777,25.362 -31.563,21.606 -23.146,19.727C-14.579,17.848 -4.96,17.66 0,13.15L0,29.497ZM20.741,50.537C19.087,51.289 17.884,51.478 16.833,51.478C12.775,51.478 12.775,48.096 12.775,40.581L12.775,-9.394C12.775,-32.128 -2.404,-36.072 -16.382,-36.072C-33.667,-36.072 -48.547,-27.617 -49.298,-3.569L-36.523,-3.569C-35.922,-17.849 -27.957,-21.982 -17.135,-21.982C-9.019,-21.982 0.15,-19.727 0.15,-5.824C0.15,6.201 -11.875,5.073 -26.001,8.453C-39.229,11.646 -52.305,16.345 -52.305,38.326C-52.305,57.676 -40.732,65.569 -26.603,65.569C-15.782,65.569 -6.313,60.871 0.751,50.537C0.751,61.059 4.96,65.569 11.573,65.569C15.631,65.569 18.486,64.627 20.741,62.938L20.741,50.537Z" style="fill:rgb(87,183,179);fill-rule:nonzero;"></path>
            </g>
            <g transform="matrix(1,0,0,1,465.829,295.22)">
                <path d="M0,-58.987C-0.751,-86.419 -15.479,-96 -34.868,-96C-50.05,-96 -68.534,-89.236 -68.534,-65.188C-68.534,-40.954 -49.897,-38.135 -31.562,-32.686C-11.572,-26.299 5.111,-23.292 5.111,4.701C5.111,30.063 -14.428,40.771 -32.765,40.771C-57.111,40.771 -75.147,26.872 -74.697,-6.949L-71.69,-6.949C-71.69,25.18 -55.609,37.015 -32.765,37.015C-15.933,37.015 2.104,27.623 2.104,4.513C2.104,-22.541 -18.935,-24.793 -35.471,-29.866C-52.904,-34.94 -71.541,-38.885 -71.541,-65.188C-71.541,-91.866 -52.152,-99.758 -34.868,-99.758C-13.826,-99.758 1.957,-89.049 3.007,-58.987L0,-58.987Z" style="fill:rgb(87,183,179);fill-rule:nonzero;"></path>
            </g>
            <g transform="matrix(1,0,0,1,518.885,268.733)">
                <path d="M0,62.563C-18.786,62.563 -31.261,45.466 -31.261,15.592C-31.261,-9.394 -19.837,-31 0,-31C19.991,-31 29.911,-9.205 29.911,15.592C29.911,37.953 21.194,62.563 0,62.563M-31.261,37.009L-30.96,37.009C-27.356,54.484 -16.38,66.322 0,66.322C21.343,66.322 32.914,42.647 32.914,15.592C32.914,-13.526 20.44,-34.756 0,-34.756C-15.78,-34.756 -27.055,-22.357 -30.96,-5.448L-31.261,-5.448L-31.261,-32.5L-34.268,-32.5L-34.268,97.319L-31.261,97.319L-31.261,37.009Z" style="fill:rgb(87,183,179);fill-rule:nonzero;"></path>
            </g>
            <g transform="matrix(1,0,0,1,566.678,302.928)">
                <path d="M0,-36.825C1.053,-54.861 10.372,-65.194 26.451,-65.194C47.046,-65.194 48.999,-50.165 48.999,-38.517C48.999,-23.862 39.98,-24.425 18.788,-22.921C5.861,-21.797 -7.814,-17.85 -7.814,6.01C-7.814,23.109 2.707,32.127 18.035,32.127C33.97,32.127 45.694,20.289 48.698,7.888L48.999,7.888L48.999,20.478C48.999,30.435 55.911,30.435 61.772,29.87L61.772,26.113C57.566,26.676 52.006,27.428 52.006,20.101L52.006,-41.333C51.553,-62.377 40.129,-68.952 26.451,-68.952C7.365,-68.952 -2.254,-55.048 -3.006,-36.825L0,-36.825ZM48.999,-9.019C48.999,9.956 37.875,28.369 17.735,28.369C0.902,28.369 -4.809,17.095 -4.809,6.01C-4.809,-14.658 6.613,-18.037 18.788,-19.165C31.264,-20.293 44.641,-19.539 48.698,-26.868L48.999,-26.868L48.999,-9.019Z" style="fill:rgb(87,183,179);fill-rule:nonzero;"></path>
            </g>
            <g transform="matrix(1,0,0,1,194.844,269.485)">
                <path d="M0,29.497C0,38.326 -6.913,51.478 -23.746,51.478C-31.562,51.478 -38.776,47.72 -38.776,37.2C-38.776,25.362 -31.562,21.606 -23.145,19.727C-14.579,17.848 -4.96,17.66 0,13.15L0,29.497ZM20.742,50.537C19.089,51.289 17.887,51.478 16.833,51.478C12.776,51.478 12.776,48.096 12.776,40.581L12.776,-9.394C12.776,-32.128 -2.403,-36.072 -16.381,-36.072C-33.666,-36.072 -48.546,-27.617 -49.296,-3.569L-36.522,-3.569C-35.921,-17.849 -27.955,-21.982 -17.134,-21.982C-9.017,-21.982 0.151,-19.727 0.151,-5.824C0.151,6.201 -11.873,5.073 -26,8.453C-39.228,11.646 -52.303,16.345 -52.303,38.326C-52.303,57.676 -40.73,65.569 -26.602,65.569C-15.781,65.569 -6.311,60.871 0.753,50.537C0.753,61.059 4.961,65.569 11.575,65.569C15.632,65.569 18.488,64.627 20.742,62.938L20.742,50.537Z" style="fill:rgb(87,183,179);fill-rule:nonzero;"></path>
            </g>
            <g transform="matrix(1,0,0,1,230.013,266.293)">
                <path d="M0,35.882C0.452,50.16 10.373,54.67 20.893,54.67C28.857,54.67 39.679,52.415 39.679,40.204C39.679,27.803 27.056,25.737 14.279,22.167C1.654,18.598 -11.121,13.339 -11.121,-5.264C-11.121,-24.802 4.358,-32.879 17.887,-32.879C35.02,-32.879 48.697,-26.116 49.75,-2.443L36.974,-2.443C36.073,-14.845 27.355,-18.789 18.937,-18.789C11.274,-18.789 2.405,-16.16 2.405,-6.391C2.405,5.07 15.933,6.949 27.806,10.518C40.581,14.088 53.207,19.349 53.207,38.134C53.207,61.245 35.922,68.761 20.14,68.761C2.705,68.761 -12.022,59.93 -12.775,35.882L0,35.882Z" style="fill:rgb(87,183,179);fill-rule:nonzero;"></path>
            </g>
        </g>
    </g>
</svg>
