<?xml version="1.0" encoding="UTF-8" standalone="no"?>
<svg width="300px" height="300px" xmlns="http://www.w3.org/2000/svg" xmlns:xlink="http://www.w3.org/1999/xlink" xmlns:serif="http://www.serif.com/"   viewBox="0 0 32 32" version="1.1" xml:space="preserve" style="fill-rule:evenodd;clip-rule:evenodd;stroke-linejoin:round;stroke-miterlimit:2;">
    <g transform="matrix(1,0,0,1,-447,-179)">
        <g>
            <g transform="matrix(0.122839,0,0,0.122839,386.972,160.155)">
                <g opacity="0.4">
                    <g transform="matrix(-0.798726,-0.601695,-0.601695,0.798726,598.132,292.628)">
                        <path d="M-48.623,-135.869C-48.623,-135.869 -19.129,-89.229 -45.044,15.726C-45.044,15.726 -46.531,15.451 -48.623,13.875C-55.015,9.059 -67.075,-7.897 -59.862,-66.295C-59.862,-66.295 -45.154,-115.059 -48.623,-135.869" style="fill:rgb(87,183,179);fill-rule:nonzero;"></path>
                    </g>
                </g>
            </g>
            <g transform="matrix(0.122839,0,0,0.122839,386.972,160.155)">
                <g opacity="0.4">
                    <g transform="matrix(-0.594066,0.804416,0.804416,0.594066,596.465,313.999)">
                        <path d="M26.788,-48.501C30.77,-53.894 35.296,-59.651 40.442,-65.81C40.442,-65.81 46.242,-15.957 26.788,10.386C21.584,17.432 14.581,22.793 5.172,25.075C5.172,25.075 -16.756,10.461 26.788,-48.501" style="fill:rgb(87,183,179);fill-rule:nonzero;"></path>
                    </g>
                </g>
            </g>
            <g transform="matrix(0.481297,0,0,0.468195,284.317,103.545)">
                <rect x="338.057" y="159.355" width="66.487" height="68.348" style="fill:none;"></rect>
            </g>
            <g transform="matrix(0.122839,0,0,0.122839,386.972,160.155)">
                <g opacity="0.4">
                    <g transform="matrix(1,0,0,1,709.925,332.291)">
                        <path d="M0,-120.454C-112.422,-61.183 -91.776,0 -91.776,0C-57.364,-84.507 0,-120.454 0,-120.454" style="fill:rgb(87,183,179);fill-rule:nonzero;"></path>
                    </g>
                </g>
            </g>
        </g>
    </g>
</svg>
